<svg width="30" height="48" viewBox="0 0 30 48" fill="none" xmlns="http://www.w3.org/2000/svg">
<path d="M20.9683 30.8571C20.957 29.4107 20.5941 27.9918 19.9148 26.7384C19.2356 25.485 18.2631 24.4395 17.0918 23.7034L29.0261 1.71429L26.2365 0L14.0183 22.5017C12.5188 22.1456 10.9593 22.1948 9.48232 22.645C8.00536 23.0951 6.65812 23.9317 5.56384 25.0783C-0.473465 31.2686 -0.00583117 45.7406 0.0167442 46.3543C0.0334131 46.797 0.210635 47.2156 0.511255 47.5224C0.811875 47.8292 1.21255 48.0004 1.62927 48H25.8027C26.1411 48 26.471 47.8868 26.7455 47.6764C27.0201 47.466 27.2254 47.1692 27.3325 46.8278C27.4395 46.4865 27.4428 46.118 27.3419 45.7746C27.2409 45.4311 27.041 45.1302 26.7702 44.9143C21.0618 40.3611 20.9683 30.9497 20.9683 30.8571ZM12.788 25.7091C14.0786 25.7242 15.3141 26.2677 16.2373 27.2266C17.1606 28.1854 17.7005 29.4858 17.7449 30.8571C17.7449 30.9223 17.7481 31.2137 17.7723 31.6611L8.25838 27.1629C8.88507 26.6135 9.60825 26.202 10.3859 25.9525C11.1635 25.7029 11.98 25.6202 12.788 25.7091ZM18.4641 44.5714C17.1752 43.1762 16.3536 41.3691 16.1259 39.4286H12.9008C13.0163 41.253 13.5524 43.0193 14.4618 44.5714H10.8771C10.214 42.3467 9.8105 40.0437 9.67579 37.7143H6.45073C6.55472 40.0367 6.91462 42.3382 7.52306 44.5714H3.22567C3.27566 41.424 3.69331 34.4709 6.13306 29.9091L18.2802 35.652C18.8639 38.8737 20.1081 41.919 21.9246 44.5714H18.4641Z" fill="#36B864"/>
</svg>
